inDegrees=no
num_controls=7
num_derivatives=13
num_iterations=130
num_multipliers=7
num_parameters=0
num_slacks=7
num_states=26
objective=5.234497
objective_accelerations=0.783538
objective_balance=0.022753
objective_effort=0.247261
objective_height=4.128988
objective_ligament=0.051957
solver_duration=1429.060616
status=Solve_Succeeded
success=true
DataType=double
version=3
OpenSimVersion=4.4-2022-07-23-0e9fedc
endheader
time	/jointset/ground_pelvis/pelvis_tilt/value	/jointset/ground_pelvis/pelvis_tx/value	/jointset/ground_pelvis/pelvis_ty/value	/jointset/hip_l/hip_flexion_l/value	/jointset/hip_l/hip_adduction_l/value	/jointset/hip_l/hip_rotation_l/value	/jointset/back/lumbar_extension/value	/jointset/patellofemoral_l/patellar_flexion_l/value	/jointset/knee_l/knee_flexion_l/value	/jointset/knee_l/knee_adduction_l/value	/jointset/knee_l/knee_rotation_l/value	/jointset/ankle_l/ankle_angle_l/value	/jointset/subtalar_l/subtalar_angle_l/value	/jointset/ground_pelvis/pelvis_tilt/speed	/jointset/ground_pelvis/pelvis_tx/speed	/jointset/ground_pelvis/pelvis_ty/speed	/jointset/hip_l/hip_flexion_l/speed	/jointset/hip_l/hip_adduction_l/speed	/jointset/hip_l/hip_rotation_l/speed	/jointset/back/lumbar_extension/speed	/jointset/patellofemoral_l/patellar_flexion_l/speed	/jointset/knee_l/knee_flexion_l/speed	/jointset/knee_l/knee_adduction_l/speed	/jointset/knee_l/knee_rotation_l/speed	/jointset/ankle_l/ankle_angle_l/speed	/jointset/subtalar_l/subtalar_angle_l/speed	/forceset/tau_hip_flexion_l	/forceset/tau_hip_adduction_l	/forceset/tau_hip_rotation_l	/forceset/tau_knee_flexion_l	/forceset/tau_ankle_angle_l	/forceset/tau_subtalar_angle_l	/forceset/tau_lumbar_extension	lambda_cid13_p0	lambda_cid13_p1	lambda_cid13_p2	lambda_cid13_p3	lambda_cid13_p4	lambda_cid13_p5	lambda_cid14_p0	/jointset/ground_pelvis/pelvis_tilt/accel	/jointset/ground_pelvis/pelvis_tx/accel	/jointset/ground_pelvis/pelvis_ty/accel	/jointset/hip_l/hip_flexion_l/accel	/jointset/hip_l/hip_adduction_l/accel	/jointset/hip_l/hip_rotation_l/accel	/jointset/back/lumbar_extension/accel	/jointset/patellofemoral_l/patellar_flexion_l/accel	/jointset/knee_l/knee_flexion_l/accel	/jointset/knee_l/knee_adduction_l/accel	/jointset/knee_l/knee_rotation_l/accel	/jointset/ankle_l/ankle_angle_l/accel	/jointset/subtalar_l/subtalar_angle_l/accel	gamma_cid13_p0	gamma_cid13_p1	gamma_cid13_p2	gamma_cid13_p3	gamma_cid13_p4	gamma_cid13_p5	gamma_cid14_p0
0	0.04729872284682632	0.1083921050736246	0.9028442818095422	0.1266917050730164	-0.3702329689528544	-0.2293388644650673	-0.2144974744115991	0.2051547269256672	0.2051547269256735	-0.1745326413704582	-0.1643799469288851	0.09024399430361882	0.07887187706181863	0	0	0	0	0	0	0	0	0	0	0	0	0	0.1153162387992316	-0.0577141850038332	-0.005033453582710536	-0.2081356167393762	0.08019530116440368	-0.06557777937295405	-0.05558230526548032	-5.407200416014603	27.40015130443177	-2.333976711234342	24.90604827943792	-448.9019154308987	-62.2927863688535	-26.39356534515237	-6.596267310821069	-2.806496699549967	-0.9509880950013754	15.78425094491621	-0.08434353947752392	2.70595513053004	-4.195253017063545	8.063693653922574	8.063693653920646	1.782608040057214	-0.6419443604688355	-0.4383444564193916	-0.2565165020994097	1.224711124206792e-08	2.784913038365403e-07	-2.36615994593674e-08	1.26965933967248e-08	7.018521815189152e-08	1.012829782808962e-07	3.179693043823206e-08
0.01	0.04697931690330732	0.1082536576441182	0.9027980668572012	0.1274609201693232	-0.3702367593876909	-0.2291995245502799	-0.2147122058097704	0.2055466272566593	0.2055466272566949	-0.1744458297094741	-0.1644037039511289	0.09022066738197713	0.07885903996154241	-0.06363928137053705	-0.02754208428271121	-0.009217500454816492	0.1531639569472404	-0.0007462360062981673	0.02774250774157201	-0.04263036186286252	0.07800980984066815	0.07800980984065294	0.01728700936040393	-0.004711730476769343	-0.00462694246831715	-0.00254142494365165	0.1129766283731727	-0.06314777950299094	-0.004719638774121957	-0.2070128479629499	0.07886360582460485	-0.0599956124421849	-0.05343035035635211	-5.478365078735695	24.91116942260158	-1.849088752047617	23.89862614646297	-449.097623646212	-67.28018396498157	-26.39351660378127	-6.211474084045495	-2.705951510292026	-0.9032934816826377	14.9806078120627	-0.06802563415910717	2.789589128913016	-4.249540105468062	7.614079835640815	7.614079835639872	1.690493000391527	-0.3798463738316834	-0.4690933281488301	-0.2490975026269627	7.328036118314895e-10	3.845960342189452e-07	6.585175276034216e-09	2.902983715114565e-08	-1.20503553904579e-07	7.709995758140871e-08	4.68829381651648e-08
0.02	0.04603077503931453	0.107844211928253	0.9026604444081203	0.1297414027835901	-0.3702476645831715	-0.2287865214514713	-0.2153437632934799	0.206707516723382	0.2067075167233811	-0.174188398831526	-0.1644733900746184	0.09015222619843812	0.07882156020940387	-0.1258271840960903	-0.05419965727175096	-0.01828149934796818	0.3022535035918921	-0.001422952130702359	0.05473263680083756	-0.08336521710855775	0.153797827141409	0.1537978271413911	0.03412384337518237	-0.009185820255562083	-0.009022852381073709	-0.004928530372463431	0.1106370179469941	-0.06858137400225175	-0.004405823965694086	-0.2058900791866398	0.07753191048471791	-0.0544134455115509	-0.05127839544722365	-5.513830585325626	22.41990585307499	-1.368372950024064	22.97211597534785	-448.5820663767618	-72.14506513090384	-26.39321252747961	-6.305991581824418	-2.629594440815591	-0.9202877826684187	14.96936888439844	-0.07043956309872768	2.55547939406875	-3.816151693630167	7.619335145937085	7.619335145937662	1.692572970932125	-0.5944162208734936	-0.3921379453071859	-0.2256525991314058	-1.078150401840494e-08	4.9070076460135e-07	3.683195001143583e-08	4.53630809055665e-08	-3.111923259610495e-07	5.291693688192126e-08	6.196894589209754e-08
0.03	0.04446712860508404	0.1071722789936141	0.902432611360279	0.1334935936797281	-0.3702649544408376	-0.2281079476395894	-0.2163724426563463	0.2086156090949061	0.2086156090949105	-0.1737648262120498	-0.164587221927457	0.09004062169291685	0.07876091908566611	-0.1866371005451367	-0.08006949033554116	-0.02728389805027705	0.4475095968438267	-0.002027297737801349	0.08088561962889776	-0.1220526930456848	0.2274294463140856	0.2274294463140576	0.05048243465501836	-0.01349961921990089	-0.01331017946435977	-0.007193609127987973	0.1066363312468434	-0.06602709846371786	-0.003732354282944022	-0.2026377875945733	0.07525209671500217	-0.05516259242261968	-0.04814320811167257	-6.208095935379712	22.78483794082491	-1.332907567590172	22.79148885772983	-447.6933674383815	-70.66970239803119	-26.3924281977212	-5.928737141637097	-2.548052702251812	-0.890097097439147	14.20246698214889	-0.05435306559696916	2.630740880892918	-3.8473511811297	7.176382720681851	7.176382720679992	1.591353870694491	-0.3377274105100695	-0.4488325882884182	-0.2261045803237146	-1.735539760214834e-08	5.613305360972243e-07	5.655648560291333e-08	5.655229150770718e-08	-4.359954884989435e-07	3.730328001293156e-08	7.256041252152699e-08
